<?xml version="1.0" standalone="no"?>
<!DOCTYPE svg PUBLIC "-//W3C//DTD SVG 20010904//EN"
        "http://www.w3.org/TR/2001/REC-SVG-20010904/DTD/svg10.dtd">
<svg version="1.0" xmlns="http://www.w3.org/2000/svg"
     width="1041.000000pt" height="1189.000000pt" viewBox="0 0 1041.000000 1189.000000"
     preserveAspectRatio="xMidYMid meet">
    <g transform="translate(0.000000,1189.000000) scale(0.100000,-0.100000)"
       fill="#000000" stroke="none">
        <path d="M5295 11318 l-247 -573 -1306 -665 -1307 -665 -53 -104 c-30 -57 -49
-101 -44 -97 6 3 40 42 77 85 97 115 109 118 480 136 160 7 586 17 948 21
l657 7 0 -170 0 -170 -871 -13 -871 -13 -336 -186 -337 -186 -173 -342 -172
-343 -178 0 -177 0 -172 348 -172 347 -172 1038 c-95 571 -176 1032 -179 1025
-4 -7 -162 -475 -351 -1039 l-344 -1026 343 -1384 344 -1384 346 -521 347
-521 -172 -1539 c-95 -846 -172 -1551 -172 -1567 -1 -27 4 -25 339 143 187 93
342 170 344 170 3 0 237 -240 520 -534 l516 -535 0 -176 c0 -138 -3 -176 -12
-172 -7 2 -393 243 -858 535 l-845 531 -3 -157 c-2 -116 1 -159 10 -167 21
-19 2729 -1448 2752 -1452 11 -2 405 84 875 191 470 108 864 196 875 196 12 0
406 -86 876 -190 470 -105 861 -190 869 -190 9 0 632 325 1387 723 l1372 722
8 170 c4 94 7 172 7 175 0 3 -78 707 -174 1565 l-173 1560 342 513 342 512 0
1379 0 1380 -350 1042 c-193 574 -352 1044 -354 1046 -1 2 -81 -466 -176
-1039 l-173 -1043 -169 -337 -168 -338 -78 0 -77 0 -265 530 -265 530 -170
169 -170 170 -880 439 -880 440 -339 786 c-186 432 -340 786 -341 786 -1 0
-114 -258 -250 -572z m405 -818 c150 -421 296 -833 325 -916 l54 -152 -172
-42 c-95 -24 -176 -46 -181 -51 -4 -4 -23 -139 -41 -301 -18 -161 -36 -304
-40 -318 -4 -16 35 -194 110 -504 63 -263 115 -482 115 -487 0 -5 -219 -9
-510 -9 l-510 0 0 712 0 712 275 1088 c151 599 275 1092 276 1096 1 10 -4 24
299 -828z m-1543 -3137 l1391 -347 1024 252 1023 252 292 13 293 12 -93 -91
-92 -91 -1215 -347 c-668 -190 -1223 -346 -1233 -346 -9 0 -554 153 -1210 341
-655 187 -1203 343 -1217 345 -24 5 -38 -21 -372 -690 l-348 -696 1 -688 1
-687 171 683 c147 582 174 682 190 682 9 0 476 -76 1037 -170 l1020 -170 727
0 728 0 1023 166 c562 92 1025 164 1028 162 4 -5 -668 -1362 -682 -1377 -2 -2
-127 89 -279 203 -151 113 -275 204 -275 200 0 -3 97 -125 216 -271 l216 -265
-286 -287 -286 -286 -700 700 -700 700 -525 -525 -525 -525 2 -523 3 -522 518
346 c286 190 525 343 532 340 7 -2 243 -158 524 -345 281 -188 513 -341 516
-341 3 0 5 228 6 508 l1 507 171 -510 172 -510 3 85 3 85 54 -145 55 -145 0
-230 0 -230 115 -575 c63 -316 115 -577 115 -580 0 -3 -391 387 -870 865
l-870 870 -431 -430 -431 -430 -444 -665 -444 -665 0 205 0 205 -179 540
c-178 538 -180 543 -352 1238 l-174 697 178 178 177 177 -527 176 -528 176
-167 679 c-92 373 -167 688 -168 699 -1 30 681 1765 694 1765 6 0 637 -156
1403 -347z"/>
        <path d="M4317 4032 l-167 -167 -194 97 -195 97 -5 -27 c-3 -15 -35 -295 -71
-622 -43 -385 -72 -608 -82 -632 -28 -66 -11 -142 130 -596 l132 -424 142 709
142 708 170 509 c94 280 169 511 168 512 -2 2 -78 -72 -170 -164z"/>
    </g>
</svg>